<svg xmlns="http://www.w3.org/2000/svg" width="31.056" height="16.817" viewBox="0 0 31.056 16.817"><defs><style>.a{fill:#868686;}</style></defs><path class="a" d="M30.522,112.455a23.192,23.192,0,0,0-4.147-3.862,18.453,18.453,0,0,0-10.847-3.871,18.453,18.453,0,0,0-10.847,3.871,23.2,23.2,0,0,0-4.147,3.862L0,113.129l.533.675a23.2,23.2,0,0,0,4.147,3.862,18.454,18.454,0,0,0,10.847,3.871,18.453,18.453,0,0,0,10.847-3.871,23.191,23.191,0,0,0,4.147-3.862l.534-.675ZM15.528,119.02a5.893,5.893,0,0,1-5.7-7.365l-1.345-.226a7.245,7.245,0,0,0,2.124,7.016,19.089,19.089,0,0,1-4.585-2.5,22.854,22.854,0,0,1-3.184-2.82,22.86,22.86,0,0,1,3.184-2.82,19.092,19.092,0,0,1,4.585-2.5l.9,1.017a5.889,5.889,0,1,1,4.023,10.189Zm9.51-3.071a19.093,19.093,0,0,1-4.585,2.5,7.239,7.239,0,0,0,0-10.631,19.094,19.094,0,0,1,4.585,2.5,22.859,22.859,0,0,1,3.184,2.82A22.846,22.846,0,0,1,25.038,115.949Z" transform="translate(0 -104.721)"/><path class="a" d="M170.924,173.53a3.925,3.925,0,1,0,1.034-1.68l1.933,2.179Z" transform="translate(-159.145 -166.266)"/></svg>