<svg xmlns="http://www.w3.org/2000/svg" width="30.143" height="32.437" viewBox="0 0 30.143 32.437"><defs><style>.a{fill:#6f6f6f;}</style></defs><path class="a" d="M25.791,21.357H43.664a3.687,3.687,0,0,0,3.68-3.68v-7.6a.085.085,0,0,0-.007-.04c0-.013-.007-.033-.007-.047s-.007-.027-.007-.04A.425.425,0,0,1,47.31,9.9c-.007-.013-.007-.027-.013-.04s-.007-.027-.013-.04a.325.325,0,0,1-.02-.047.146.146,0,0,0-.02-.033l-.02-.04c-.007-.013-.013-.02-.02-.033s-.02-.027-.027-.04A.117.117,0,0,0,47.15,9.6c-.007-.013-.02-.02-.027-.033s-.02-.02-.027-.033-.02-.02-.027-.027l-.033-.033c-.013-.007-.02-.02-.033-.027s-.027-.02-.04-.027-.02-.013-.033-.02a.139.139,0,0,1-.04-.027l-.04-.02-.04-.02-.04-.02c-.013-.007-.027-.007-.04-.013a.124.124,0,0,0-.047-.013.289.289,0,0,1-.033-.007.147.147,0,0,0-.053-.007c-.007,0-.013-.007-.027-.007L23.918,6.138V2.978a.41.41,0,0,0-.007-.093.05.05,0,0,0-.007-.027c0-.02-.007-.04-.007-.06s-.007-.033-.013-.053-.007-.02-.007-.033l-.02-.06c0-.007-.007-.02-.007-.027a.2.2,0,0,0-.027-.053c-.007-.007-.007-.02-.013-.027a.139.139,0,0,0-.027-.04c-.007-.013-.013-.02-.02-.033s-.013-.02-.02-.033-.02-.027-.027-.04l-.02-.02-.04-.04-.02-.02a.29.29,0,0,0-.047-.04c-.007-.007-.02-.013-.027-.02s-.027-.02-.04-.033a.615.615,0,0,0-.053-.033c-.007-.007-.013-.007-.02-.013-.027-.013-.06-.027-.087-.04L18.451.071a.9.9,0,1,0-.7,1.66l4.36,1.84V23.29a3.684,3.684,0,0,0,3.207,3.647A3.632,3.632,0,1,0,32.064,28.8a3.564,3.564,0,0,0-.5-1.833h8.093a3.582,3.582,0,0,0-.5,1.833A3.633,3.633,0,1,0,42.79,25.17h-17a1.882,1.882,0,0,1-1.88-1.88v-2.44A3.722,3.722,0,0,0,25.791,21.357Zm4.48,7.44a1.833,1.833,0,1,1-1.833-1.833A1.836,1.836,0,0,1,30.271,28.8Zm14.359,0A1.833,1.833,0,1,1,42.8,26.964,1.836,1.836,0,0,1,44.63,28.8Zm-.967-9.24H25.791a1.882,1.882,0,0,1-1.88-1.88V7.951l21.632,2.98v6.74A1.883,1.883,0,0,1,43.664,19.557Z" transform="translate(-17.2 0)"/></svg>