<svg xmlns="http://www.w3.org/2000/svg" width="36" height="36" viewBox="0 0 36 36"><defs><style>.a{fill:#fcfcfc;}</style></defs><g transform="translate(0)"><path class="a" d="M254.751,423.2c-.3.074-.6.141-.9.2a1.462,1.462,0,0,0-.57,2.625,1.435,1.435,0,0,0,1.1.242c.358-.067.718-.146,1.072-.234a1.457,1.457,0,0,0-.7-2.829Z" transform="translate(-233.114 -390.301)"/><path class="a" d="M412.88,139.082a1.452,1.452,0,0,0,.539.733,1.437,1.437,0,0,0,1.289.193,1.461,1.461,0,0,0,.919-1.842c-.114-.348-.241-.7-.376-1.038a1.444,1.444,0,0,0-1.881-.812,1.461,1.461,0,0,0-.806,1.895C412.677,138.5,412.784,138.789,412.88,139.082Z" transform="translate(-380.541 -125.724)"/><path class="a" d="M322.375,394.153c-.255.17-.519.334-.784.488a1.464,1.464,0,0,0-.111,2.455,1.44,1.44,0,0,0,1.558.071c.316-.183.629-.378.933-.581a1.464,1.464,0,0,0,.409-2.02A1.44,1.44,0,0,0,322.375,394.153Z" transform="translate(-296.036 -363.337)"/><path class="a" d="M430.528,208.712a1.447,1.447,0,1,0-2.892.115c.012.308.015.62.008.927a1.459,1.459,0,0,0,.615,1.225,1.436,1.436,0,0,0,.8.265,1.452,1.452,0,0,0,1.478-1.425C430.545,209.451,430.542,209.079,430.528,208.712Z" transform="translate(-394.541 -191.283)"/><path class="a" d="M379.7,344.361a1.44,1.44,0,0,0-2.026.291c-.184.247-.377.49-.575.725a1.466,1.466,0,0,0,.164,2.055c.035.03.07.057.106.082a1.44,1.44,0,0,0,1.934-.247c.237-.28.467-.571.687-.865A1.465,1.465,0,0,0,379.7,344.361Z" transform="translate(-347.6 -317.379)"/><path class="a" d="M415.963,279.419a1.445,1.445,0,0,0-1.814.955c-.091.293-.193.588-.3.877a1.465,1.465,0,0,0,.518,1.71,1.443,1.443,0,0,0,2.187-.672c.13-.343.25-.694.36-1.043A1.46,1.46,0,0,0,415.963,279.419Z" transform="translate(-381.733 -257.707)"/><path class="a" d="M15.323,34.795a14.866,14.866,0,0,1-3.712-1.188c-.014-.007-.026-.016-.041-.022-.277-.132-.554-.272-.823-.42l0,0a15.251,15.251,0,0,1-5.089-22.1,15.093,15.093,0,0,1,3.712-3.72L9.418,7.3a15.037,15.037,0,0,1,16.954-.137L25.242,8.811c-.314.458-.121.792.429.742l4.911-.443a.814.814,0,0,0,.732-1.066L30,3.257c-.148-.537-.526-.6-.84-.143l-1.133,1.65a17.768,17.768,0,0,0-13.1-2.805q-.695.121-1.37.295l-.009,0-.052.015A17.839,17.839,0,0,0,3.6,8.95c-.021.025-.042.049-.062.076-.082.111-.164.225-.243.339-.13.187-.259.378-.382.57-.015.023-.027.047-.041.07a18.072,18.072,0,0,0-2.852,10.6c0,.012,0,.025,0,.037.016.366.045.736.084,1.1,0,.024.007.046.011.069.04.367.091.735.155,1.1a18.035,18.035,0,0,0,5.036,9.756l.019.019.007.006a18.267,18.267,0,0,0,2.306,1.941,17.775,17.775,0,0,0,7.176,3.025,1.457,1.457,0,0,0,.511-2.87Z" transform="translate(0 -1.688)"/><path class="a" d="M207.158,83.2a1.176,1.176,0,0,0-1.171,1.179V96.128l10.669,5.556a1.157,1.157,0,0,0,.536.132,1.17,1.17,0,0,0,1.041-.638,1.183,1.183,0,0,0-.5-1.589l-9.4-4.9V84.377A1.175,1.175,0,0,0,207.158,83.2Z" transform="translate(-190.046 -76.844)"/></g></svg>